<?xml version="1.0" encoding="utf-8"?>
<!-- Generator: Adobe Illustrator 16.0.0, SVG Export Plug-In . SVG Version: 6.00 Build 0)  -->
<!DOCTYPE svg PUBLIC "-//W3C//DTD SVG 1.1//EN" "http://www.w3.org/Graphics/SVG/1.1/DTD/svg11.dtd">
<svg version="1.1" id="Layer_1" xmlns="http://www.w3.org/2000/svg" xmlns:xlink="http://www.w3.org/1999/xlink" x="0px" y="0px"
	 width="146px" height="54px" viewBox="0 0 146 54" enable-background="new 0 0 146 54" xml:space="preserve">
<path fill-rule="evenodd" clip-rule="evenodd" fill="#C2D840" d="M6.728,0h132.544c3.7,0,6.728,3.165,6.728,7.033v39.934
	c0,3.867-3.027,7.033-6.728,7.033H6.728C3.028,54,0,50.834,0,46.967V7.033C0,3.165,3.028,0,6.728,0L6.728,0z M6.728,3.44
	c-1.89,0-3.437,1.617-3.437,3.593v39.934c0,1.976,1.547,3.593,3.437,3.593h132.544c1.891,0,3.437-1.617,3.437-3.593V7.033
	c0-1.976-1.546-3.593-3.437-3.593H6.728z"/>
<path fill-rule="evenodd" clip-rule="evenodd" fill="#C2D840" d="M16.051,9.146h16.106c1.999,0,3.634,1.686,3.634,3.746v10.157
	h-8.838v-4.145c0-0.902-0.706-1.641-1.569-1.641h-2.396c-0.863,0-1.569,0.738-1.569,1.641v15.888c0,0.902,0.706,1.641,1.569,1.641
	h2.396c0.863,0,1.569-0.738,1.569-1.641v-4.316h8.838v10.588c0,2.061-1.635,3.746-3.634,3.746H16.051
	c-1.999,0-3.634-1.686-3.634-3.746V12.891C12.417,10.831,14.052,9.146,16.051,9.146z"/>
<polygon fill-rule="evenodd" clip-rule="evenodd" fill="#C2D840" points="39.178,8.973 48.016,8.973 48.016,36.346 62.057,36.346 
	62.057,44.809 39.178,44.809 "/>
<path fill-rule="evenodd" clip-rule="evenodd" fill="#C2D840" d="M62.825,8.887h15.091c0,11.974,0,23.947,0,35.922h-8.92V32.633
	h-7.021v2.418h-9.003V18.915C52.972,13.399,57.406,8.887,62.825,8.887L62.825,8.887z M65.297,17.411
	c-1.873,0-3.405,1.706-3.405,3.791v4.264h7.021v-8.055H65.297z"/>
<path fill-rule="evenodd" clip-rule="evenodd" fill="#C2D840" d="M81.468,9.059h20.367c1.79,0,3.255,1.548,3.255,3.439v15.313
	c0,1.891-1.465,3.439-3.255,3.439h-0.044l5.859,13.471h-8.838l-5.221-12.003h-3.369v12.09h-8.755V31.251v-5.094V9.059L81.468,9.059z
	 M90.32,17.264v8.397h4.77c0.945,0,1.719-0.809,1.719-1.797v-4.801c0-0.989-0.773-1.798-1.72-1.798H90.32z"/>
<path fill-rule="evenodd" clip-rule="evenodd" fill="#C2D840" d="M124.418,8.973h8.756l-7.964,16.579h5.114
	c1.748,0,3.18,1.632,3.18,3.626c0,5.173-0.032,10.335-0.032,15.543h-8.762V34.295c0-0.744-0.521-1.367-1.2-1.489l0,0h-0.001
	c-0.08-0.015-0.161-0.022-0.244-0.022c-1.839,0-3.675,0.022-5.514,0.022v12.003h-8.943V32.806v-7.253V8.973h8.672v14.444
	L124.418,8.973z"/>
</svg>
