<?xml version="1.0" encoding="UTF-8" standalone="no"?>
<svg
   xmlns:dc="http://purl.org/dc/elements/1.1/"
   xmlns:cc="http://creativecommons.org/ns#"
   xmlns:rdf="http://www.w3.org/1999/02/22-rdf-syntax-ns#"
   xmlns:svg="http://www.w3.org/2000/svg"
   xmlns="http://www.w3.org/2000/svg"
   xmlns:sodipodi="http://sodipodi.sourceforge.net/DTD/sodipodi-0.dtd"
   xmlns:inkscape="http://www.inkscape.org/namespaces/inkscape"
   viewBox="0 0 32 32"
   version="1.1"
   id="svg19"
   sodipodi:docname="brand.svg"
   inkscape:version="0.92.1 r15371">
  <metadata
     id="metadata25">
    <rdf:RDF>
      <cc:Work
         rdf:about="">
        <dc:format>image/svg+xml</dc:format>
        <dc:type
           rdf:resource="http://purl.org/dc/dcmitype/StillImage" />
      </cc:Work>
    </rdf:RDF>
  </metadata>
  <defs
     id="defs23" />
  <sodipodi:namedview
     pagecolor="#ffffff"
     bordercolor="#666666"
     borderopacity="1"
     objecttolerance="10"
     gridtolerance="10"
     guidetolerance="10"
     inkscape:pageopacity="0"
     inkscape:pageshadow="2"
     inkscape:window-width="2560"
     inkscape:window-height="1057"
     id="namedview21"
     showgrid="false"
     inkscape:zoom="26.619141"
     inkscape:cx="9.8953702"
     inkscape:cy="19.189033"
     inkscape:window-x="1912"
     inkscape:window-y="-8"
     inkscape:window-maximized="1"
     inkscape:current-layer="svg19" />
  <title
     id="title2" />
  <path
     id="path4"
     d="m 28.71,6.29 -6,-6 A 1,1 0 0 0 22,0 H 6 A 3,3 0 0 0 3,3 v 26 a 3,3 0 0 0 3,3 h 20 a 3,3 0 0 0 3,-3 V 7 A 1,1 0 0 0 28.71,6.29 Z M 27,29 a 1,1 0 0 1 -1,1 H 6 A 1,1 0 0 1 5,29 V 3 A 1,1 0 0 1 6,2 h 15 v 4 a 2,2 0 0 0 2,2 h 4 z"
     inkscape:connector-curvature="0"
     style="fill:#ffffff;fill-opacity:1" />
  <path
     id="path6"
     d="m 11,11 a 3,3 0 1 0 3,3 3,3 0 0 0 -3,-3 z m 0,4 a 1,1 0 1 1 1,-1 1,1 0 0 1 -1,1 z"
     inkscape:connector-curvature="0"
     style="fill:#ffffff;fill-opacity:1" />
  <path
     id="path8"
     d="m 11,21 a 3,3 0 1 0 3,3 3,3 0 0 0 -3,-3 z m 0,4 a 1,1 0 1 1 1,-1 1,1 0 0 1 -1,1 z"
     inkscape:connector-curvature="0"
     style="fill:#ffffff;fill-opacity:1" />
  <rect
     id="rect10"
     y="11"
     x="16"
     width="8"
     height="2"
     style="fill:#ffffff;fill-opacity:1" />
  <rect
     id="rect12"
     y="15"
     x="16"
     width="4"
     height="2"
     style="fill:#ffffff;fill-opacity:1" />
  <rect
     id="rect14"
     y="21"
     x="16"
     width="8"
     height="2"
     style="fill:#ffffff;fill-opacity:1" />
  <rect
     id="rect16"
     y="25"
     x="16"
     width="4"
     height="2"
     style="fill:#ffffff;fill-opacity:1" />
</svg>
