<?xml version="1.0" encoding="UTF-8" standalone="no"?>
<svg
   xmlns:dc="http://purl.org/dc/elements/1.1/"
   xmlns:cc="http://creativecommons.org/ns#"
   xmlns:rdf="http://www.w3.org/1999/02/22-rdf-syntax-ns#"
   xmlns:svg="http://www.w3.org/2000/svg"
   xmlns="http://www.w3.org/2000/svg"
   xmlns:sodipodi="http://sodipodi.sourceforge.net/DTD/sodipodi-0.dtd"
   xmlns:inkscape="http://www.inkscape.org/namespaces/inkscape"
   enable-background="new 0 0 141.732 141.732"
   height="141.732px"
   id="Livello_1"
   version="1.1"
   viewBox="0 0 141.732 141.732"
   width="141.732px"
   xml:space="preserve"
   sodipodi:docname="clock.svg"
   inkscape:version="0.92.1 r15371"><metadata
     id="metadata11"><rdf:RDF><cc:Work
         rdf:about=""><dc:format>image/svg+xml</dc:format><dc:type
           rdf:resource="http://purl.org/dc/dcmitype/StillImage" /></cc:Work></rdf:RDF></metadata><defs
     id="defs9" /><sodipodi:namedview
     pagecolor="#ffffff"
     bordercolor="#666666"
     borderopacity="1"
     objecttolerance="10"
     gridtolerance="10"
     guidetolerance="10"
     inkscape:pageopacity="0"
     inkscape:pageshadow="2"
     inkscape:window-width="2560"
     inkscape:window-height="1057"
     id="namedview7"
     showgrid="false"
     inkscape:zoom="6.0100227"
     inkscape:cx="43.82783"
     inkscape:cy="70.865997"
     inkscape:window-x="1912"
     inkscape:window-y="-8"
     inkscape:window-maximized="1"
     inkscape:current-layer="Livello_1" /><g
     id="Livello_5"
     style="fill:#ffffff;fill-opacity:1"><path
       d="M113.326,70.191c0-2.97-2.377-5.376-5.307-5.376H75.543V32.387v-0.001c0-2.98-2.418-5.397-5.396-5.397   c-2.98,0-5.398,2.417-5.398,5.397V70.17c0,2.981,2.418,5.398,5.398,5.398h37.875C110.949,75.568,113.326,73.161,113.326,70.191    M129.533,70.157c0,32.798-26.584,59.386-59.375,59.386c-32.793,0-59.375-26.588-59.375-59.386s26.582-59.386,59.375-59.386   C102.949,10.771,129.533,37.359,129.533,70.157 M140.314,70.157C140.314,31.41,108.904,0,70.158,0C31.41,0,0,31.41,0,70.157   s31.41,70.157,70.158,70.157C108.904,140.314,140.314,108.904,140.314,70.157"
       id="path2"
       style="fill:#ffffff;fill-opacity:1" /></g><g
     id="Livello_1_1_" /></svg>