<?xml version="1.0" encoding="UTF-8" standalone="no"?>
<!-- Generator: Adobe Illustrator 17.1.0, SVG Export Plug-In . SVG Version: 6.00 Build 0)  -->

<svg
   xmlns:dc="http://purl.org/dc/elements/1.1/"
   xmlns:cc="http://creativecommons.org/ns#"
   xmlns:rdf="http://www.w3.org/1999/02/22-rdf-syntax-ns#"
   xmlns:svg="http://www.w3.org/2000/svg"
   xmlns="http://www.w3.org/2000/svg"
   xmlns:sodipodi="http://sodipodi.sourceforge.net/DTD/sodipodi-0.dtd"
   xmlns:inkscape="http://www.inkscape.org/namespaces/inkscape"
   version="1.1"
   id="Facebook"
   x="0px"
   y="0px"
   viewBox="0 0 128 128"
   enable-background="new 0 0 128 128"
   xml:space="preserve"
   sodipodi:docname="Facebook.svg"
   inkscape:version="0.92.1 r15371"><metadata
     id="metadata11"><rdf:RDF><cc:Work
         rdf:about=""><dc:format>image/svg+xml</dc:format><dc:type
           rdf:resource="http://purl.org/dc/dcmitype/StillImage" /><dc:title></dc:title></cc:Work></rdf:RDF></metadata><defs
     id="defs9" /><sodipodi:namedview
     pagecolor="#ffffff"
     bordercolor="#666666"
     borderopacity="1"
     objecttolerance="10"
     gridtolerance="10"
     guidetolerance="10"
     inkscape:pageopacity="0"
     inkscape:pageshadow="2"
     inkscape:window-width="2560"
     inkscape:window-height="1057"
     id="namedview7"
     showgrid="false"
     inkscape:zoom="6.6547852"
     inkscape:cx="39.581481"
     inkscape:cy="64"
     inkscape:window-x="1912"
     inkscape:window-y="-8"
     inkscape:window-maximized="1"
     inkscape:current-layer="Facebook" /><rect
     style="fill:#d45500"
     y="0"
     x="0"
     height="128"
     width="128"
     id="facebook-back" /><path
     style="fill:#ffffff"
     inkscape:connector-curvature="0"
     d="M 95.8838,28.1602 H 32.1162 c -2.1855,0 -3.956,1.7705 -3.956,3.956 v 63.7676 c 0,2.1846 1.7705,3.956 3.956,3.956 H 66.4463 V 72.082 H 57.1055 V 61.2637 h 9.3408 v -7.9776 c 0,-9.2588 5.6543,-14.2998 13.9141,-14.2998 3.956,0 7.3554,0.2945 8.3466,0.4263 v 9.6753 l -5.7275,0.0024 c -4.4922,0 -5.3613,2.1348 -5.3613,5.2666 v 6.9068 H 88.3301 L 86.9355,72.082 h -9.3173 v 27.7578 h 18.2656 c 2.1846,0 3.956,-1.7714 3.956,-3.956 V 32.1162 c 0,-2.1855 -1.7714,-3.956 -3.956,-3.956 z"
     id="facebook-facebook" /></svg>