<?xml version="1.0" encoding="UTF-8" standalone="no"?>
<svg
   xmlns:dc="http://purl.org/dc/elements/1.1/"
   xmlns:cc="http://creativecommons.org/ns#"
   xmlns:rdf="http://www.w3.org/1999/02/22-rdf-syntax-ns#"
   xmlns:svg="http://www.w3.org/2000/svg"
   xmlns="http://www.w3.org/2000/svg"
   xmlns:sodipodi="http://sodipodi.sourceforge.net/DTD/sodipodi-0.dtd"
   xmlns:inkscape="http://www.inkscape.org/namespaces/inkscape"
   enable-background="new 0 0 512 492.607"
   height="492.607px"
   id="Layer_1"
   version="1.1"
   viewBox="0 0 512 492.607"
   width="512px"
   xml:space="preserve"
   sodipodi:docname="finance1.svg"
   inkscape:version="0.92.1 r15371"><metadata
     id="metadata23"><rdf:RDF><cc:Work
         rdf:about=""><dc:format>image/svg+xml</dc:format><dc:type
           rdf:resource="http://purl.org/dc/dcmitype/StillImage" /></cc:Work></rdf:RDF></metadata><defs
     id="defs21" /><sodipodi:namedview
     pagecolor="#ffffff"
     bordercolor="#666666"
     borderopacity="1"
     objecttolerance="10"
     gridtolerance="10"
     guidetolerance="10"
     inkscape:pageopacity="0"
     inkscape:pageshadow="2"
     inkscape:window-width="2560"
     inkscape:window-height="1057"
     id="namedview19"
     showgrid="false"
     inkscape:zoom="1.7291929"
     inkscape:cx="162.02552"
     inkscape:cy="246.3035"
     inkscape:window-x="1912"
     inkscape:window-y="-8"
     inkscape:window-maximized="1"
     inkscape:current-layer="Layer_1" /><g
     id="meanicons_x5F_60"
     style="fill:#ffffff;fill-opacity:1"><g
       id="g14"
       style="fill:#ffffff;fill-opacity:1"><path
         d="M89.793,431.479c5.527,0,10.019-4.455,10.019-9.955V249.883c0-5.473-4.491-9.953-10.019-9.953h-38.22    c-5.563,0-10.018,4.48-10.018,9.953v171.641c0,5.5,4.454,9.955,10.018,9.955H89.793z"
         id="path2"
         style="fill:#ffffff;fill-opacity:1" /><path
         d="M496.313,448.188H16.354c-5.462,0-9.983,4.46-9.983,9.971v25.869c0,5.528,4.521,9.974,9.983,9.974h479.958    c5.527,0,9.957-4.444,9.957-9.974v-25.869C506.27,452.647,501.841,448.188,496.313,448.188z"
         id="path4"
         style="fill:#ffffff;fill-opacity:1" /><path
         d="M213.625,431.479c5.471,0,9.956-4.455,9.956-9.955V249.883c0-5.473-4.485-9.953-9.956-9.953h-38.317    c-5.466,0-9.92,4.48-9.92,9.953v171.641c0,5.5,4.454,9.955,9.92,9.955H213.625z"
         id="path6"
         style="fill:#ffffff;fill-opacity:1" /><path
         d="M461.16,431.479c5.471,0,9.982-4.455,9.982-9.955V249.883c0-5.473-4.513-9.953-9.982-9.953h-38.323    c-5.49,0-9.944,4.48-9.944,9.953v171.641c0,5.5,4.455,9.955,9.944,9.955H461.16z"
         id="path8"
         style="fill:#ffffff;fill-opacity:1" /><path
         d="M499.329,183.817L294.745,14.484c-21.144-17.457-55.679-17.457-76.824,0L13.379,183.817    c-21.175,17.54-15.984,31.802,11.457,31.802h463.052C515.302,215.619,520.464,201.357,499.329,183.817z M256.335,174.422    c-21.454,0-38.843-17.428-38.843-38.873c0-21.449,17.389-38.814,38.843-38.814c21.507,0,38.845,17.365,38.845,38.814    C295.18,156.994,277.842,174.422,256.335,174.422z"
         id="path10"
         style="fill:#ffffff;fill-opacity:1" /><path
         d="M337.363,431.479c5.528,0,9.983-4.455,9.983-9.955V249.883c0-5.473-4.455-9.953-9.983-9.953h-38.254    c-5.539,0-9.994,4.48-9.994,9.953v171.641c0,5.5,4.455,9.955,9.994,9.955H337.363z"
         id="path12"
         style="fill:#ffffff;fill-opacity:1" /></g></g><g
     id="Layer_1_1_" /></svg>