<?xml version="1.0" encoding="UTF-8" standalone="no"?>
<svg
   xmlns:dc="http://purl.org/dc/elements/1.1/"
   xmlns:cc="http://creativecommons.org/ns#"
   xmlns:rdf="http://www.w3.org/1999/02/22-rdf-syntax-ns#"
   xmlns:svg="http://www.w3.org/2000/svg"
   xmlns="http://www.w3.org/2000/svg"
   xmlns:sodipodi="http://sodipodi.sourceforge.net/DTD/sodipodi-0.dtd"
   xmlns:inkscape="http://www.inkscape.org/namespaces/inkscape"
   id="Layer_1"
   version="1.1"
   viewBox="0 0 30 30"
   xml:space="preserve"
   sodipodi:docname="finance.svg"
   width="30"
   height="30"
   inkscape:version="0.92.1 r15371"><metadata
     id="metadata27"><rdf:RDF><cc:Work
         rdf:about=""><dc:format>image/svg+xml</dc:format><dc:type
           rdf:resource="http://purl.org/dc/dcmitype/StillImage" /><dc:title></dc:title></cc:Work></rdf:RDF></metadata><defs
     id="defs25" /><sodipodi:namedview
     pagecolor="#ffffff"
     bordercolor="#666666"
     borderopacity="1"
     objecttolerance="10"
     gridtolerance="10"
     guidetolerance="10"
     inkscape:pageopacity="0"
     inkscape:pageshadow="2"
     inkscape:window-width="2560"
     inkscape:window-height="1057"
     id="namedview23"
     showgrid="false"
     scale-x="1"
     inkscape:zoom="28.39375"
     inkscape:cx="9.2769095"
     inkscape:cy="15"
     inkscape:window-x="1912"
     inkscape:window-y="-8"
     inkscape:window-maximized="1"
     inkscape:current-layer="Layer_1" /><g
     id="g869"><line
       id="line2"
       y2="8"
       y1="8"
       x2="26"
       x1="4"
       style="fill:none;stroke:#3c3c3c;stroke-width:2;stroke-linecap:round;stroke-miterlimit:10;stroke-opacity:1" /><line
       id="line4"
       y2="4"
       y1="4"
       x2="24"
       x1="6"
       style="fill:none;stroke:#3c3c3c;stroke-width:2;stroke-linecap:round;stroke-miterlimit:10;stroke-opacity:1" /><path
       id="path6"
       style="fill:none;stroke:#3c3c3c;stroke-width:2;stroke-linecap:round;stroke-miterlimit:10;stroke-opacity:1"
       d="M 26,26 H 4 C 3.448,26 3,25.552 3,25 V 13 c 0,-0.552 0.448,-1 1,-1 h 22 c 0.552,0 1,0.448 1,1 v 12 c 0,0.552 -0.448,1 -1,1 z"
       inkscape:connector-curvature="0" /><circle
       id="circle8"
       r="2"
       cy="13"
       cx="26"
       style="fill:#3c3c3c;fill-opacity:1;stroke:#3c3c3c;stroke-opacity:1" /><circle
       id="circle10"
       r="2"
       cy="13"
       cx="4"
       style="fill:#3c3c3c;fill-opacity:1;stroke:#3c3c3c;stroke-opacity:1" /><circle
       id="circle12"
       r="2"
       cy="25"
       cx="4"
       style="fill:#3c3c3c;fill-opacity:1;stroke:#3c3c3c;stroke-opacity:1" /><circle
       id="circle14"
       r="2"
       cy="25"
       cx="26"
       style="fill:#3c3c3c;fill-opacity:1;stroke:#3c3c3c;stroke-opacity:1" /><circle
       id="circle16"
       r="1"
       cy="19"
       cx="23"
       style="fill:#3c3c3c;fill-opacity:1;stroke:#3c3c3c;stroke-opacity:1" /><circle
       id="circle18"
       r="1"
       cy="19"
       cx="7"
       style="fill:#3c3c3c;fill-opacity:1;stroke:#3c3c3c;stroke-opacity:1" /><path
       id="path20"
       d="m 12.514,23 h 4.972 C 18.402,22.175 19,20.922 19,19.5 19,17.015 17.209,15 15,15 c -2.209,0 -4,2.015 -4,4.5 0,1.422 0.598,2.675 1.514,3.5 z"
       style="fill:#3c3c3c;fill-opacity:1;stroke:#3c3c3c;stroke-opacity:1"
       inkscape:connector-curvature="0" /></g></svg>