<?xml version="1.0" encoding="UTF-8" standalone="no"?>
<svg
   xmlns:dc="http://purl.org/dc/elements/1.1/"
   xmlns:cc="http://creativecommons.org/ns#"
   xmlns:rdf="http://www.w3.org/1999/02/22-rdf-syntax-ns#"
   xmlns:svg="http://www.w3.org/2000/svg"
   xmlns="http://www.w3.org/2000/svg"
   xmlns:sodipodi="http://sodipodi.sourceforge.net/DTD/sodipodi-0.dtd"
   xmlns:inkscape="http://www.inkscape.org/namespaces/inkscape"
   enable-background="new 0 0 48 48"
   height="48px"
   version="1.1"
   viewBox="0 0 48 48"
   width="48px"
   xml:space="preserve"
   id="svg49"
   sodipodi:docname="fork.svg"
   inkscape:version="0.92.1 r15371"><metadata
     id="metadata55"><rdf:RDF><cc:Work
         rdf:about=""><dc:format>image/svg+xml</dc:format><dc:type
           rdf:resource="http://purl.org/dc/dcmitype/StillImage" /></cc:Work></rdf:RDF></metadata><defs
     id="defs53" /><sodipodi:namedview
     pagecolor="#ffffff"
     bordercolor="#666666"
     borderopacity="1"
     objecttolerance="10"
     gridtolerance="10"
     guidetolerance="10"
     inkscape:pageopacity="0"
     inkscape:pageshadow="2"
     inkscape:window-width="2560"
     inkscape:window-height="1057"
     id="namedview51"
     showgrid="false"
     inkscape:zoom="10.217198"
     inkscape:cx="14.843055"
     inkscape:cy="24"
     inkscape:window-x="1912"
     inkscape:window-y="-8"
     inkscape:window-maximized="1"
     inkscape:current-layer="svg49" /><g
     id="g4"
     style="fill:#3c3c3c;fill-opacity:1"
     transform="translate(-0.12489792,1.9359177)"><path
       d="m 41,46 c -2.757,0 -5,-2.243 -5,-5 0,-2.757 2.243,-5 5,-5 2.757,0 5,2.243 5,5 0,2.757 -2.243,5 -5,5 z m 0,-8 c -1.654,0 -3,1.346 -3,3 0,1.654 1.346,3 3,3 1.654,0 3,-1.346 3,-3 0,-1.654 -1.346,-3 -3,-3 z"
       id="path2"
       style="fill:#3c3c3c;fill-opacity:1"
       inkscape:connector-curvature="0" /></g><g
     id="g8"
     style="fill:#3c3c3c;fill-opacity:1"
     transform="translate(2.7477542,1.498775)"><path
       d="M 13,46 H 9 C 8.447,46 8,45.553 8,45 V 11 c 0,-1.654 1.346,-3 3,-3 1.654,0 3,1.346 3,3 v 34 c 0,0.553 -0.447,1 -1,1 z m -3,-2 h 2 V 11 c 0,-0.552 -0.448,-1 -1,-1 -0.552,0 -1,0.448 -1,1 z"
       id="path6"
       style="fill:#3c3c3c;fill-opacity:1"
       inkscape:connector-curvature="0" /></g><g
     id="g12"
     style="fill:#3c3c3c;fill-opacity:1"
     transform="matrix(0.7323616,0,0,0.7323616,6.4144003,14.372182)"><path
       d="m 27,46 c -3.859,0 -7,-3.141 -7,-7 0,-3.859 3.141,-7 7,-7 3.859,0 7,3.141 7,7 0,3.859 -3.141,7 -7,7 z m 0,-12 c -2.757,0 -5,2.243 -5,5 0,2.757 2.243,5 5,5 2.757,0 5,-2.243 5,-5 0,-2.757 -2.243,-5 -5,-5 z"
       id="path10"
       style="fill:#3c3c3c;fill-opacity:1"
       inkscape:connector-curvature="0" /></g><g
     id="g16"
     style="fill:#3c3c3c;fill-opacity:1"
     transform="translate(1.6711381,1.068909)"><path
       d="m 36.001,29 c -0.08,0 -0.162,-0.01 -0.243,-0.03 -0.536,-0.134 -0.862,-0.677 -0.728,-1.212 l 2,-8 c 0.134,-0.537 0.676,-0.865 1.212,-0.728 0.536,0.134 0.862,0.677 0.728,1.212 l -2,8 C 36.856,28.697 36.449,29 36.001,29 Z"
       id="path14"
       style="fill:#3c3c3c;fill-opacity:1"
       inkscape:connector-curvature="0" /></g><g
     id="g28"
     style="fill:#3c3c3c;fill-opacity:1"
     transform="matrix(1.0109167,0,0,1.2713983,0.14693341,-4.5681318)"><path
       d="m 27,34 c -0.256,0 -0.512,-0.098 -0.707,-0.293 -0.391,-0.391 -0.391,-1.023 0,-1.414 l 5,-5 C 31.48,27.105 31.734,27 32,27 h 11 c 0.553,0 1,0.447 1,1 0,0.553 -0.447,1 -1,1 H 32.414 l -4.707,4.707 C 27.512,33.902 27.256,34 27,34 Z"
       id="path26"
       style="fill:#3c3c3c;fill-opacity:1"
       inkscape:connector-curvature="0" /></g><g
     id="g32"
     style="fill:#3c3c3c;fill-opacity:1"
     transform="translate(2.7477542,1.498775)"><path
       d="M 13,46 H 1 C 0.447,46 0,45.553 0,45 0,44.447 0.447,44 1,44 h 12 c 0.553,0 1,0.447 1,1 0,0.553 -0.447,1 -1,1 z"
       id="path30"
       style="fill:#3c3c3c;fill-opacity:1"
       inkscape:connector-curvature="0" /></g><g
     id="g40"
     style="fill:#3c3c3c;fill-opacity:1"
     transform="matrix(1.3420126,0,0,1,-12.822798,1.9359177)"><rect
       height="2"
       width="4.9299998"
       x="32.196999"
       y="41"
       id="rect38"
       style="fill:#3c3c3c;fill-opacity:1" /></g><g
     id="g44"
     style="fill:#3c3c3c;fill-opacity:1"
     transform="translate(-0.12489792,1.9359177)"><path
       d="M 47,43 H 44.873 V 41 H 46 V 31.5 L 42.4,28.8 C 42.148,28.611 42,28.314 42,28 V 17 c 0,-1.654 -1.408466,-3.31983 -3.062449,-3.312245 l -13.61714,0.06245 C 15.94651,13.793193 18,21.626 18,31 v 10 h 3.803 v 2 H 17 c -0.553,0 -1,-0.447 -1,-1 V 31 C 16,20.523 14.718942,12.219686 25.195513,12.124898 L 39,12 c 2.756887,-0.02494 5,2.243 5,5 v 10.5 l 3.6,2.7 c 0.252,0.188 0.4,0.485 0.4,0.8 v 11 c 0,0.553 -0.447,1 -1,1 z"
       id="path42"
       style="fill:#3c3c3c;fill-opacity:1"
       inkscape:connector-curvature="0"
       sodipodi:nodetypes="sccccsssssscccssssssccsss" /></g></svg>