<?xml version="1.0" encoding="UTF-8" standalone="no"?>
<!-- Generator: Adobe Illustrator 17.1.0, SVG Export Plug-In . SVG Version: 6.00 Build 0)  -->

<svg
   xmlns:dc="http://purl.org/dc/elements/1.1/"
   xmlns:cc="http://creativecommons.org/ns#"
   xmlns:rdf="http://www.w3.org/1999/02/22-rdf-syntax-ns#"
   xmlns:svg="http://www.w3.org/2000/svg"
   xmlns="http://www.w3.org/2000/svg"
   xmlns:sodipodi="http://sodipodi.sourceforge.net/DTD/sodipodi-0.dtd"
   xmlns:inkscape="http://www.inkscape.org/namespaces/inkscape"
   version="1.1"
   id="Instagram"
   x="0px"
   y="0px"
   viewBox="0 0 128 128"
   enable-background="new 0 0 128 128"
   xml:space="preserve"
   sodipodi:docname="Instagram.svg"
   inkscape:version="0.92.1 r15371"><metadata
     id="metadata11"><rdf:RDF><cc:Work
         rdf:about=""><dc:format>image/svg+xml</dc:format><dc:type
           rdf:resource="http://purl.org/dc/dcmitype/StillImage" /><dc:title></dc:title></cc:Work></rdf:RDF></metadata><defs
     id="defs9" /><sodipodi:namedview
     pagecolor="#ffffff"
     bordercolor="#666666"
     borderopacity="1"
     objecttolerance="10"
     gridtolerance="10"
     guidetolerance="10"
     inkscape:pageopacity="0"
     inkscape:pageshadow="2"
     inkscape:window-width="2560"
     inkscape:window-height="1057"
     id="namedview7"
     showgrid="false"
     inkscape:zoom="6.6547852"
     inkscape:cx="68.147938"
     inkscape:cy="64"
     inkscape:window-x="1912"
     inkscape:window-y="-8"
     inkscape:window-maximized="1"
     inkscape:current-layer="Instagram" /><rect
     style="fill:#ff6600;fill-opacity:1"
     y="0"
     x="0"
     height="128"
     width="128"
     id="instagram-back" /><path
     style="clip-rule:evenodd;fill:#ffffff;fill-rule:evenodd"
     inkscape:connector-curvature="0"
     d="m 91.5703,58.4829 h -6.2392 c 0.4541,1.7651 0.7236,3.6089 0.7236,5.5156 0,12.1831 -9.875,22.0562 -22.0552,22.0562 -12.1797,0 -22.0542,-9.8731 -22.0542,-22.0562 0,-1.9067 0.27,-3.7505 0.7246,-5.5156 h -6.2407 v 30.3286 c 0,1.5205 1.2349,2.7549 2.7598,2.7549 h 49.6215 c 1.5254,0 2.7598,-1.2344 2.7598,-2.7549 z m 0,-19.2969 c 0,-1.5219 -1.2344,-2.7568 -2.7598,-2.7568 H 80.542 c -1.5225,0 -2.7568,1.2349 -2.7568,2.7568 v 8.272 c 0,1.522 1.2343,2.7568 2.7568,2.7568 h 8.2685 c 1.5254,0 2.7598,-1.2348 2.7598,-2.7568 z M 63.9995,50.2148 c -7.6133,0 -13.7847,6.1705 -13.7847,13.7837 0,7.6128 6.1714,13.7867 13.7847,13.7867 7.6138,0 13.7857,-6.1739 13.7857,-13.7867 0,-7.6132 -6.1719,-13.7837 -13.7857,-13.7837 m 27.5708,49.625 H 36.4292 c -4.5664,0 -8.269,-3.7041 -8.269,-8.2734 V 36.4292 c 0,-4.5669 3.7026,-8.269 8.269,-8.269 h 55.1411 c 4.5684,0 8.2695,3.7021 8.2695,8.269 v 55.1372 c 0,4.5693 -3.7011,8.2734 -8.2695,8.2734"
     id="instagram-instagram" /></svg>