<?xml version="1.0" encoding="UTF-8" standalone="no"?>
<!-- Generator: Adobe Illustrator 17.1.0, SVG Export Plug-In . SVG Version: 6.00 Build 0)  -->

<svg
   xmlns:dc="http://purl.org/dc/elements/1.1/"
   xmlns:cc="http://creativecommons.org/ns#"
   xmlns:rdf="http://www.w3.org/1999/02/22-rdf-syntax-ns#"
   xmlns:svg="http://www.w3.org/2000/svg"
   xmlns="http://www.w3.org/2000/svg"
   xmlns:sodipodi="http://sodipodi.sourceforge.net/DTD/sodipodi-0.dtd"
   xmlns:inkscape="http://www.inkscape.org/namespaces/inkscape"
   version="1.1"
   id="Linkedin"
   x="0px"
   y="0px"
   viewBox="0 0 128 128"
   enable-background="new 0 0 128 128"
   xml:space="preserve"
   sodipodi:docname="Linkedin.svg"
   inkscape:version="0.92.1 r15371"><metadata
     id="metadata15"><rdf:RDF><cc:Work
         rdf:about=""><dc:format>image/svg+xml</dc:format><dc:type
           rdf:resource="http://purl.org/dc/dcmitype/StillImage" /><dc:title></dc:title></cc:Work></rdf:RDF></metadata><defs
     id="defs13" /><sodipodi:namedview
     pagecolor="#ffffff"
     bordercolor="#666666"
     borderopacity="1"
     objecttolerance="10"
     gridtolerance="10"
     guidetolerance="10"
     inkscape:pageopacity="0"
     inkscape:pageshadow="2"
     inkscape:window-width="2560"
     inkscape:window-height="1057"
     id="namedview11"
     showgrid="false"
     inkscape:zoom="2.3528219"
     inkscape:cx="39.581481"
     inkscape:cy="-11.28199"
     inkscape:window-x="1912"
     inkscape:window-y="-8"
     inkscape:window-maximized="1"
     inkscape:current-layer="Linkedin" /><rect
     style="fill:#ee5c00;stroke:none;stroke-opacity:1;fill-opacity:1"
     y="0"
     x="0"
     height="128"
     width="128"
     id="linkedin-back" /><path
     d="m 29.0752,51.7471 h 14.8686 v 47.792 H 29.0752 Z m 7.4385,-23.7574 c 4.7514,0 8.6089,3.8589 8.6089,8.6133 0,4.7554 -3.8575,8.6143 -8.6089,8.6143 -4.7705,0 -8.6172,-3.8589 -8.6172,-8.6143 0,-4.7544 3.8467,-8.6133 8.6172,-8.6133"
     id="path3"
     inkscape:connector-curvature="0"
     style="fill:#ffffff" /><path
     d="M 53.2622,51.7471 H 67.5 v 6.5337 h 0.2041 c 1.9805,-3.7574 6.8272,-7.7198 14.0537,-7.7198 15.0391,0 17.8184,9.896 17.8184,22.7671 v 26.211 H 84.7246 V 76.2979 c 0,-5.542 -0.0957,-12.6719 -7.7187,-12.6719 -7.7286,0 -8.9082,6.04 -8.9082,12.2754 V 99.5391 H 53.2622 Z"
     id="path5"
     inkscape:connector-curvature="0"
     style="fill:#ffffff" /></svg>