<?xml version="1.0" encoding="UTF-8" standalone="no"?>
<svg
   xmlns:dc="http://purl.org/dc/elements/1.1/"
   xmlns:cc="http://creativecommons.org/ns#"
   xmlns:rdf="http://www.w3.org/1999/02/22-rdf-syntax-ns#"
   xmlns:svg="http://www.w3.org/2000/svg"
   xmlns="http://www.w3.org/2000/svg"
   xmlns:sodipodi="http://sodipodi.sourceforge.net/DTD/sodipodi-0.dtd"
   xmlns:inkscape="http://www.inkscape.org/namespaces/inkscape"
   viewBox="0 0 32 32"
   version="1.1"
   id="svg7"
   sodipodi:docname="pin.svg"
   inkscape:version="0.92.1 r15371">
  <metadata
     id="metadata13">
    <rdf:RDF>
      <cc:Work
         rdf:about="">
        <dc:format>image/svg+xml</dc:format>
        <dc:type
           rdf:resource="http://purl.org/dc/dcmitype/StillImage" />
      </cc:Work>
    </rdf:RDF>
  </metadata>
  <defs
     id="defs11" />
  <sodipodi:namedview
     pagecolor="#ffffff"
     bordercolor="#666666"
     borderopacity="1"
     objecttolerance="10"
     gridtolerance="10"
     guidetolerance="10"
     inkscape:pageopacity="0"
     inkscape:pageshadow="2"
     inkscape:window-width="2560"
     inkscape:window-height="1057"
     id="namedview9"
     showgrid="false"
     inkscape:zoom="26.619141"
     inkscape:cx="9.8953702"
     inkscape:cy="24.002735"
     inkscape:window-x="1912"
     inkscape:window-y="-8"
     inkscape:window-maximized="1"
     inkscape:current-layer="svg7" />
  <title
     id="title2" />
  <path
     inkscape:connector-curvature="0"
     id="path4"
     d="M 26,0 H 6 A 1,1 0 0 0 5,1 v 4 a 1,1 0 0 0 1,1 h 2 v 10.59 l -1.71,1.7 A 1,1 0 0 0 6,19 v 3 a 1,1 0 0 0 1,1 h 8 v 9 h 2 v -9 h 8 a 1,1 0 0 0 1,-1 V 19 A 1,1 0 0 0 25.71,18.29 L 24,16.59 V 6 h 2 A 1,1 0 0 0 27,5 V 1 A 1,1 0 0 0 26,0 Z M 24,21 H 8 V 19.41 L 9.41,18 H 22.59 L 24,19.41 Z M 10,16 V 6 H 22 V 16 Z M 25,4 H 7 V 2 h 18 z"
     style="fill:#ffffff;fill-opacity:1" />
</svg>
