<?xml version="1.0" encoding="UTF-8" standalone="no"?>
<!-- Created with Inkscape (http://www.inkscape.org/) -->

<svg
   xmlns:dc="http://purl.org/dc/elements/1.1/"
   xmlns:cc="http://creativecommons.org/ns#"
   xmlns:rdf="http://www.w3.org/1999/02/22-rdf-syntax-ns#"
   xmlns:svg="http://www.w3.org/2000/svg"
   xmlns="http://www.w3.org/2000/svg"
   xmlns:sodipodi="http://sodipodi.sourceforge.net/DTD/sodipodi-0.dtd"
   xmlns:inkscape="http://www.inkscape.org/namespaces/inkscape"
   width="48.174988mm"
   height="19.606354mm"
   viewBox="0 0 96.349977 39.212708"
   version="1.1"
   id="svg6994"
   inkscape:version="0.92.1 r15371"
   sodipodi:docname="ardent-med.svg">
  <defs
     id="defs6988" />
  <sodipodi:namedview
     id="base"
     pagecolor="#ffffff"
     bordercolor="#666666"
     borderopacity="1.0"
     inkscape:pageopacity="0.0"
     inkscape:pageshadow="2"
     inkscape:zoom="1.6750126"
     inkscape:cx="88.920775"
     inkscape:cy="-84.373623"
     inkscape:document-units="mm"
     inkscape:current-layer="layer1"
     showgrid="false"
     inkscape:window-width="1920"
     inkscape:window-height="1057"
     inkscape:window-x="-8"
     inkscape:window-y="-8"
     inkscape:window-maximized="1"
     units="mm"
     scale-x="2"
     fit-margin-top="2"
     fit-margin-left="2"
     fit-margin-right="2"
     fit-margin-bottom="2"
     inkscape:snap-global="false" />
  <metadata
     id="metadata6991">
    <rdf:RDF>
      <cc:Work
         rdf:about="">
        <dc:format>image/svg+xml</dc:format>
        <dc:type
           rdf:resource="http://purl.org/dc/dcmitype/StillImage" />
        <dc:title></dc:title>
      </cc:Work>
    </rdf:RDF>
  </metadata>
  <g
     inkscape:label="Layer 1"
     inkscape:groupmode="layer"
     id="layer1"
     transform="translate(-163.48037,-100.20382)">
    <g
       id="g168">
      <g
         style="fill:#f66400;fill-opacity:1"
         transform="matrix(0.38085726,0,0,-0.38085726,21.022477,321.6558)"
         id="g5728">
        <g
           style="fill:#f66400;fill-opacity:1"
           id="g5168"
           transform="translate(392.1133,500.1611)">
          <path
             d="m 0,0 h 2.619 l 3.61,-5.464 V 0 H 8.972 V -10.866 H 6.493 l -3.75,5.697 v -5.697 H 0 Z"
             style="fill:#f66400;fill-opacity:1;fill-rule:nonzero;stroke:none"
             id="path5170"
             inkscape:connector-curvature="0" />
        </g>
        <g
           style="fill:#f66400;fill-opacity:1"
           id="g5172"
           transform="translate(408.5742,497.6621)">
          <path
             d="m 0,0 v -5.868 h 0.806 c 1.549,0 2.588,0.916 2.588,2.856 v 0.14 C 3.394,-0.916 2.355,0 0.806,0 Z m -2.789,2.499 h 3.564 c 3.487,0 5.47,-2.111 5.47,-5.309 v -0.186 c 0,-3.198 -1.999,-5.371 -5.516,-5.371 h -3.518 z"
             style="fill:#f66400;fill-opacity:1;fill-rule:nonzero;stroke:none"
             id="path5174"
             inkscape:connector-curvature="0" />
        </g>
        <g
           style="fill:#f66400;fill-opacity:1"
           id="g5176"
           transform="translate(419.1157,493.5947)">
          <path
             d="m 0,0 v 6.566 h 2.805 v -6.597 c 0,-1.304 0.635,-1.925 1.596,-1.925 0.976,0 1.596,0.59 1.596,1.879 v 6.643 h 2.82 V 0.047 C 8.817,-3.104 7.035,-4.486 4.386,-4.486 1.736,-4.486 0,-3.089 0,0"
             style="fill:#f66400;fill-opacity:1;fill-rule:nonzero;stroke:none"
             id="path5178"
             inkscape:connector-curvature="0" />
        </g>
        <g
           style="fill:#f66400;fill-opacity:1"
           id="g5180"
           transform="translate(431.7495,490.7388)">
          <path
             d="m 0,0 1.488,2.033 c 0.883,-0.729 1.89,-1.226 2.944,-1.226 0.743,0 1.131,0.326 1.131,0.792 V 1.614 C 5.563,2.049 5.238,2.313 3.967,2.763 1.922,3.461 0.48,4.207 0.48,6.178 v 0.047 c 0,1.971 1.503,3.353 3.874,3.353 1.457,0 2.743,-0.404 3.875,-1.32 L 6.818,6.178 C 6.075,6.753 5.175,7.172 4.292,7.172 3.657,7.172 3.301,6.861 3.301,6.458 V 6.442 C 3.301,5.961 3.642,5.712 5.021,5.2 7.082,4.533 8.368,3.694 8.368,1.847 V 1.816 C 8.368,-0.295 6.741,-1.599 4.417,-1.599 2.805,-1.599 1.271,-1.103 0,0"
             style="fill:#f66400;fill-opacity:1;fill-rule:nonzero;stroke:none"
             id="path5182"
             inkscape:connector-curvature="0" />
        </g>
        <g
           style="fill:#f66400;fill-opacity:1"
           id="g5184"
           transform="translate(446.3047,497.6465)">
          <path
             d="M 0,0 H -2.681 V 2.515 H 5.47 V 0 H 2.789 V -8.352 H 0 Z"
             style="fill:#f66400;fill-opacity:1;fill-rule:nonzero;stroke:none"
             id="path5186"
             inkscape:connector-curvature="0" />
        </g>
        <g
           style="fill:#f66400;fill-opacity:1"
           id="g5188"
           transform="translate(460.1465,494.8833)">
          <path
             d="m 0,0 c 0.945,0 1.503,0.543 1.503,1.413 v 0.031 c 0,0.931 -0.588,1.397 -1.519,1.397 H -1.379 V 0 Z M -4.153,5.278 H 0.108 C 1.565,5.278 2.665,4.89 3.362,4.176 3.967,3.57 4.308,2.732 4.308,1.63 V 1.553 c 0,-1.615 -0.79,-2.624 -1.937,-3.198 L 4.603,-5.588 H 1.457 l -1.844,3.368 h -0.992 v -3.368 h -2.774 z"
             style="fill:#f66400;fill-opacity:1;fill-rule:nonzero;stroke:none"
             id="path5190"
             inkscape:connector-curvature="0" />
        </g>
        <path
           d="m 468.859,500.161 h 2.789 v -10.866 h -2.789 z"
           style="fill:#f66400;fill-opacity:1;fill-rule:nonzero;stroke:none"
           id="path5192"
           inkscape:connector-curvature="0" />
        <g
           style="fill:#f66400;fill-opacity:1"
           id="g5194"
           transform="translate(481.8784,493.4863)">
          <path
             d="M 0,0 -1.007,3.182 -2.014,0 Z M -2.387,6.737 H 0.434 L 4.262,-4.191 H 1.333 l -0.636,1.956 h -3.409 l -0.62,-1.956 h -2.866 z"
             style="fill:#f66400;fill-opacity:1;fill-rule:nonzero;stroke:none"
             id="path5196"
             inkscape:connector-curvature="0" />
        </g>
        <g
           style="fill:#f66400;fill-opacity:1"
           id="g5198"
           transform="translate(490.0957,500.1611)">
          <path
             d="m 0,0 h 2.79 v -8.352 h 4.261 v -2.514 H 0 Z"
             style="fill:#f66400;fill-opacity:1;fill-rule:nonzero;stroke:none"
             id="path5200"
             inkscape:connector-curvature="0" />
        </g>
        <g
           style="fill:#f66400;fill-opacity:1"
           id="g5202"
           transform="translate(508.1396,500.1611)">
          <path
             d="M 0,0 H 7.469 V -2.452 H 2.758 V -4.237 H 7.004 V -6.551 H 2.758 V -8.413 H 7.53 v -2.453 H 0 Z"
             style="fill:#f66400;fill-opacity:1;fill-rule:nonzero;stroke:none"
             id="path5204"
             inkscape:connector-curvature="0" />
        </g>
        <g
           style="fill:#f66400;fill-opacity:1"
           id="g5206"
           transform="translate(525.6074,491.7632)">
          <path
             d="m 0,0 -1.302,1.226 1.503,1.49 0.961,-0.931 c 0.062,0.311 0.109,0.668 0.109,1.056 v 0.186 c 0,1.894 -0.9,3.043 -2.201,3.043 -1.286,0 -2.17,-1.149 -2.17,-3.028 V 2.856 c 0,-1.925 0.9,-3.058 2.216,-3.058 0.326,0 0.62,0.062 0.884,0.202 M 2.82,-2.763 1.875,-1.816 C 1.085,-2.359 0.124,-2.67 -0.93,-2.67 c -2.913,0 -5.02,2.267 -5.02,5.511 v 0.233 c 0,3.244 2.122,5.526 5.035,5.526 2.929,0 5.021,-2.251 5.021,-5.511 V 2.856 c 0,-1.195 -0.31,-2.266 -0.821,-3.135 l 1.038,-0.994 z"
             style="fill:#f66400;fill-opacity:1;fill-rule:nonzero;stroke:none"
             id="path5208"
             inkscape:connector-curvature="0" />
        </g>
        <g
           style="fill:#f66400;fill-opacity:1"
           id="g5210"
           transform="translate(534.042,493.5947)">
          <path
             d="m 0,0 v 6.566 h 2.805 v -6.597 c 0,-1.304 0.635,-1.925 1.595,-1.925 0.977,0 1.597,0.59 1.597,1.879 V 6.566 H 8.816 V 0.047 c 0,-3.151 -1.782,-4.533 -4.43,-4.533 C 1.735,-4.486 0,-3.089 0,0"
             style="fill:#f66400;fill-opacity:1;fill-rule:nonzero;stroke:none"
             id="path5212"
             inkscape:connector-curvature="0" />
        </g>
        <path
           d="m 547.512,500.161 h 2.79 v -10.866 h -2.79 z"
           style="fill:#f66400;fill-opacity:1;fill-rule:nonzero;stroke:none"
           id="path5214"
           inkscape:connector-curvature="0" />
        <g
           style="fill:#f66400;fill-opacity:1"
           id="g5216"
           transform="translate(558.8271,494.7285)">
          <path
             d="m 0,0 c 0.976,0 1.564,0.574 1.564,1.49 v 0.047 c 0,0.993 -0.572,1.505 -1.58,1.505 H -0.977 V 0 Z m -3.751,5.433 h 3.875 c 2.557,0 4.23,-1.335 4.23,-3.772 V 1.599 c 0,-2.608 -1.89,-3.85 -4.261,-3.881 h -1.07 v -3.152 h -2.774 z"
             style="fill:#f66400;fill-opacity:1;fill-rule:nonzero;stroke:none"
             id="path5218"
             inkscape:connector-curvature="0" />
        </g>
        <g
           style="fill:#f66400;fill-opacity:1"
           id="g5220"
           transform="translate(567.3379,500.1611)">
          <path
             d="M 0,0 H 2.867 L 5.067,-4.005 7.252,0 h 2.883 V -10.866 H 7.377 V -4.75 L 5.067,-8.786 H 5.021 l -2.309,4.005 v -6.085 H 0 Z"
             style="fill:#f66400;fill-opacity:1;fill-rule:nonzero;stroke:none"
             id="path5222"
             inkscape:connector-curvature="0" />
        </g>
        <g
           style="fill:#f66400;fill-opacity:1"
           id="g5224"
           transform="translate(582.1875,500.1611)">
          <path
             d="M 0,0 H 7.469 V -2.452 H 2.759 V -4.237 H 7.005 V -6.551 H 2.759 v -1.862 h 4.772 v -2.453 H 0 Z"
             style="fill:#f66400;fill-opacity:1;fill-rule:nonzero;stroke:none"
             id="path5226"
             inkscape:connector-curvature="0" />
        </g>
        <g
           style="fill:#f66400;fill-opacity:1"
           id="g5228"
           transform="translate(594.123,500.1611)">
          <path
             d="M 0,0 H 2.62 L 6.229,-5.464 V 0 H 8.973 V -10.866 H 6.494 l -3.751,5.697 v -5.697 H 0 Z"
             style="fill:#f66400;fill-opacity:1;fill-rule:nonzero;stroke:none"
             id="path5230"
             inkscape:connector-curvature="0" />
        </g>
        <g
           style="fill:#f66400;fill-opacity:1"
           id="g5680">
          <path
             inkscape:connector-curvature="0"
             id="path5166"
             style="fill:#f66400;fill-opacity:1;fill-rule:nonzero;stroke:none"
             d="m 384.548,500.161 h 2.79 v -10.866 h -2.79 z" />
          <g
             style="fill:#f66400;fill-opacity:1"
             transform="translate(609.9814,497.6465)"
             id="g5232">
            <path
               inkscape:connector-curvature="0"
               id="path5234"
               style="fill:#f66400;fill-opacity:1;fill-rule:nonzero;stroke:none"
               d="M 0,0 H -2.681 V 2.515 H 5.47 V 0 H 2.789 V -8.352 H 0 Z" />
          </g>
        </g>
      </g>
      <g
         transform="translate(95.899371,-44.723428)"
         id="g74">
        <g
           id="g5146"
           transform="matrix(0.35277777,0,0,-0.35277777,97.505124,159.35169)">
          <path
             d="m 0,0 h 13.169 v -7.346 c 1.946,5.022 5.088,8.245 10.775,7.946 v -14.393 h -0.898 c -6.36,0 -9.877,-3.824 -9.877,-11.92 V -40.556 H 0 Z"
             style="fill:#393536;fill-opacity:1;fill-rule:nonzero;stroke:none"
             id="path5148"
             inkscape:connector-curvature="0" />
        </g>
        <g
           id="g5150"
           transform="matrix(0.35277777,0,0,-0.35277777,116.03545,166.67716)">
          <path
             d="m 0,0 v 0.975 c 0,5.622 -2.769,9.37 -6.51,9.37 -3.891,0 -6.584,-3.748 -6.584,-9.37 V 0 c 0,-5.623 2.693,-9.37 6.584,-9.37 C -2.769,-9.37 0,-5.623 0,0 m -26.114,-0.3 v 1.35 c 0,13.793 7.033,20.54 15.114,20.54 5.388,0 8.456,-2.699 10.85,-5.697 V 34.484 H 12.945 V -19.791 H -0.15 v 5.173 c -2.469,-3.224 -5.462,-5.998 -10.775,-5.998 -8.156,0 -15.189,6.748 -15.189,20.316"
             style="fill:#393536;fill-opacity:1;fill-rule:nonzero;stroke:none"
             id="path5152"
             inkscape:connector-curvature="0" />
        </g>
        <g
           id="g5154"
           transform="matrix(0.35277777,0,0,-0.35277777,130.86968,165.3813)">
          <path
             d="m 0,0 c -0.374,5.022 -2.469,7.796 -5.687,7.796 -3.142,0 -5.238,-2.623 -5.761,-7.796 z m -24.019,-3.748 v 0.824 c 0,12.219 7.632,20.915 18.332,20.915 11.973,0 17.958,-9.295 17.958,-21.664 0,-0.525 0,-2.699 -0.075,-3.748 h -23.494 c 0.972,-4.349 3.891,-6.598 7.781,-6.598 3.218,0 5.837,1.5 8.306,3.824 l 6.285,-7.497 c -3.815,-4.048 -8.754,-6.672 -15.488,-6.672 -11.449,0 -19.605,7.947 -19.605,20.616"
             style="fill:#393536;fill-opacity:1;fill-rule:nonzero;stroke:none"
             id="path5156"
             inkscape:connector-curvature="0" />
        </g>
        <g
           id="g5158"
           transform="matrix(0.35277777,0,0,-0.35277777,136.99299,159.35169)">
          <path
             d="m 0,0 h 13.17 v -5.397 c 2.244,3.223 5.536,6.222 10.7,6.222 7.557,0 11.972,-5.173 11.972,-13.419 v -27.962 h -13.17 v 23.914 c 0,3.748 -1.87,5.772 -4.639,5.772 -2.844,0 -4.863,-2.024 -4.863,-5.772 V -40.556 H 0 Z"
             style="fill:#393536;fill-opacity:1;fill-rule:nonzero;stroke:none"
             id="path5160"
             inkscape:connector-curvature="0" />
        </g>
        <g
           id="g5162"
           transform="matrix(0.35277777,0,0,-0.35277777,152.51383,169.77119)">
          <path
             d="m 0,0 v 18.966 h -4.041 v 10.57 H 0 v 10.12 h 13.094 v -10.12 h 7.931 V 18.966 H 13.094 V 2.999 c 0,-2.399 1.122,-3.374 3.367,-3.374 1.497,0 2.993,0.375 4.49,1.049 V -9.671 C 18.631,-10.945 15.563,-11.77 12.047,-11.77 4.714,-11.77 0,-8.622 0,0"
             style="fill:#393536;fill-opacity:1;fill-rule:nonzero;stroke:none"
             id="path5164"
             inkscape:connector-curvature="0" />
        </g>
        <g
           id="g114"
           transform="matrix(0.74854512,0,0,0.74854512,24.143908,43.71189)">
          <g
             transform="matrix(0.35277777,0,0,-0.35277777,83.043109,161.07383)"
             id="g5142">
            <path
               inkscape:connector-curvature="0"
               id="path5144"
               style="fill:#393536;fill-opacity:1;fill-rule:nonzero;stroke:none"
               d="M 0,0 -8.693,27.468 -17.387,0 Z M -5.902,58.15 H 3.744 L 36.776,-36.176 H 11.501 l -5.483,16.883 h -29.422 l -5.35,-16.883 h -24.741 l 28.06,80.451 c 2.898,8.308 10.734,13.875 19.533,13.875" />
          </g>
          <g
             style="fill:#f66400;fill-opacity:1"
             transform="matrix(0.35277777,0,0,-0.35277777,64.171262,173.83592)"
             id="g5342">
            <path
               inkscape:connector-curvature="0"
               id="path5344"
               style="fill:#f66400;fill-opacity:1;fill-rule:nonzero;stroke:none"
               d="m 0,0 h 24.741 l 32.498,94.326 h -9.646 c -8.799,0 -16.635,-5.567 -19.533,-13.875 z" />
          </g>
        </g>
      </g>
    </g>
  </g>
</svg>
